<svg width="1440" height="532" viewBox="0 0 1440 532" fill="none" xmlns="http://www.w3.org/2000/svg">
<g clip-path="url(#clip0_103_218)">
<rect width="1440" height="532" fill="#F8F8FF"/>
<g clip-path="url(#clip1_103_218)">
<path d="M-7.69671 212.528L-9.92224 323.799C15.6529 319.156 36.2533 295.012 36.772 269.072C37.2908 243.131 17.673 218.185 -7.69671 212.528Z" fill="#A08CFF"/>
<path d="M324.527 -14.8945C326.686 -1.69786 320.45 12.4954 309.262 19.8495C298.074 27.2035 282.14 28.3246 270.847 21.1319C261.17 28.9698 248.914 33.5818 236.46 34.0706C224.007 34.5595 210.414 30.6575 200.151 23.6021C197.709 33.524 191.641 42.5149 183.345 48.4999C175.048 54.4839 166.042 57.6571 155.838 56.8576C145.751 90.7831 122.516 120.629 92.0732 138.765C61.63 156.902 24.2817 163.147 -10.422 155.905V-24.4848L324.527 -14.8945Z" fill="#A08CFF"/>
<path d="M190.743 138.32C190.694 138.013 190.635 137.709 190.57 137.405C189.05 136.921 187.529 136.437 186.008 135.953C187.273 135.563 188.538 135.173 189.802 134.781C189.263 133.345 188.546 131.974 187.638 130.723C187.476 130.498 187.297 130.284 187.123 130.068C185.466 130.309 183.809 130.552 182.152 130.793C183.331 130.027 184.511 129.261 185.691 128.496C181.477 124.412 175.202 122.383 169.333 123.414C168.998 129.264 171.067 135.327 174.474 140.132C175.266 138.86 176.059 137.586 176.851 136.313C176.733 138.424 176.616 140.536 176.499 142.648C177.168 143.38 177.875 144.067 178.618 144.709C183.699 149.099 191.79 144.889 190.743 138.32Z" fill="#FFB13C"/>
<path d="M164.044 121.257C171.954 124.031 178.703 129.829 182.545 137.149" stroke="#2B2C34" stroke-width="1.33333" stroke-miterlimit="10" stroke-linecap="round" stroke-linejoin="round"/>
<path d="M42.1273 204.443C42.1761 204.75 42.235 205.054 42.2998 205.358C43.8201 205.842 45.3404 206.326 46.8616 206.81C45.5967 207.2 44.3318 207.59 43.0679 207.982C43.6066 209.418 44.3239 210.789 45.2316 212.04C45.3942 212.265 45.5718 212.479 45.7464 212.695C47.4043 212.454 49.0612 212.212 50.7182 211.97C49.539 212.736 48.3589 213.502 47.1788 214.267C51.3925 218.35 57.6681 220.38 63.5367 219.349C63.8718 213.499 61.8029 207.436 58.3963 202.631C57.6032 203.904 56.8112 205.177 56.0191 206.45C56.1368 204.338 56.2536 202.227 56.3713 200.115C55.7019 199.383 54.9946 198.696 54.2515 198.054C49.171 193.664 41.0798 197.873 42.1273 204.443Z" fill="#FF7AD7"/>
<path d="M68.8255 221.506C60.9159 218.732 54.1665 212.934 50.325 205.614" stroke="#2B2C34" stroke-width="1.33333" stroke-miterlimit="10" stroke-linecap="round" stroke-linejoin="round"/>
<path d="M279 49.7266C278.77 49.5165 278.535 49.3144 278.295 49.1163C276.802 49.6798 275.31 50.2434 273.816 50.8069C274.565 49.7167 275.313 48.6264 276.061 47.5362C274.744 46.7436 273.33 46.1143 271.839 45.6972C271.572 45.6215 271.3 45.5637 271.028 45.502C269.879 46.7187 268.731 47.9364 267.583 49.1531C268.031 47.8219 268.479 46.4897 268.927 45.1585C263.084 44.5701 256.903 46.8691 252.945 51.3157C256.322 56.1089 261.717 59.5778 267.376 61.2326C267.206 59.7431 267.034 58.2536 266.862 56.765C268.084 58.4925 269.307 60.221 270.529 61.9485C271.509 62.1068 272.491 62.2074 273.472 62.2502C280.186 62.5419 283.909 54.2261 279 49.7266Z" fill="#6246EA"/>
<path d="M247.458 52.9039C255.383 50.1748 264.28 50.5352 271.846 53.8906" stroke="#2B2C34" stroke-width="1.33333" stroke-miterlimit="10" stroke-linecap="round" stroke-linejoin="round"/>
<path d="M118.449 170.877C118.449 170.051 117.779 169.383 116.953 169.383C116.127 169.383 115.457 170.051 115.457 170.877C115.457 171.701 116.127 172.37 116.953 172.37C117.779 172.37 118.449 171.701 118.449 170.877Z" fill="#E45858"/>
<path d="M70.3218 135.424C70.3218 134.6 69.6515 133.931 68.8255 133.931C67.9995 133.931 67.3292 134.6 67.3292 135.424C67.3292 136.249 67.9995 136.918 68.8255 136.918C69.6515 136.918 70.3218 136.249 70.3218 135.424Z" fill="#6246EA"/>
<path d="M61.0716 263.647C61.0716 262.822 60.4013 262.153 59.5753 262.153C58.7493 262.153 58.079 262.822 58.079 263.647C58.079 264.472 58.7493 265.14 59.5753 265.14C60.4013 265.14 61.0716 264.472 61.0716 263.647Z" fill="#2B2C34"/>
<path d="M202.901 87.4136C202.901 86.5892 202.231 85.9201 201.405 85.9201C200.579 85.9201 199.908 86.5892 199.908 87.4136C199.908 88.238 200.579 88.9071 201.405 88.9071C202.231 88.9071 202.901 88.238 202.901 87.4136Z" fill="#6246EA"/>
<path d="M210.953 40.6691C210.953 39.8447 210.283 39.1756 209.457 39.1756C208.631 39.1756 207.961 39.8447 207.961 40.6691C207.961 41.4935 208.631 42.1626 209.457 42.1626C210.283 42.1626 210.953 41.4935 210.953 40.6691Z" stroke="#2B2C34" stroke-width="1.33333" stroke-miterlimit="10" stroke-linecap="round" stroke-linejoin="round"/>
<path d="M354.914 16.1861C354.914 15.3616 354.243 14.6926 353.417 14.6926C352.591 14.6926 351.921 15.3616 351.921 16.1861C351.921 17.0105 352.591 17.6796 353.417 17.6796C354.243 17.6796 354.914 17.0105 354.914 16.1861Z" fill="#6246EA"/>
<path d="M367.148 31.4017C367.148 30.5773 366.478 29.9082 365.652 29.9082C364.826 29.9082 364.155 30.5773 364.155 31.4017C364.155 32.2261 364.826 32.8952 365.652 32.8952C366.478 32.8952 367.148 32.2261 367.148 31.4017Z" stroke="#2B2C34" stroke-width="1.33333" stroke-miterlimit="10" stroke-linecap="round" stroke-linejoin="round"/>
<path d="M234.862 11.0203C234.862 10.1958 234.192 9.52675 233.366 9.52675C232.54 9.52675 231.87 10.1958 231.87 11.0203C231.87 11.8447 232.54 12.5138 233.366 12.5138C234.192 12.5138 234.862 11.8447 234.862 11.0203Z" fill="#E45858"/>
<path d="M184.041 10.9524C184.041 10.128 183.371 9.45888 182.545 9.45888C181.719 9.45888 181.048 10.128 181.048 10.9524C181.048 11.7768 181.719 12.4459 182.545 12.4459C183.371 12.4459 184.041 11.7768 184.041 10.9524Z" fill="#6246EA"/>
<path d="M21.3044 280.135C21.3044 279.311 20.6341 278.641 19.8081 278.641C18.9821 278.641 18.3118 279.311 18.3118 280.135C18.3118 280.959 18.9821 281.628 19.8081 281.628C20.6341 281.628 21.3044 280.959 21.3044 280.135Z" fill="#6246EA"/>
<path d="M88.8349 161.916L83.6517 170.877H94.0182L88.8349 161.916Z" stroke="#2B2C34" stroke-width="1.33333" stroke-miterlimit="10" stroke-linecap="round" stroke-linejoin="round"/>
<path d="M379.338 15.8039L381.329 25.9588L389.145 19.1593L379.338 15.8039Z" fill="#E45858"/>
<path d="M214.6 85.2237L224.873 86.6156L220.944 77.0403L214.6 85.2237Z" fill="#2B2C34"/>
<path d="M48.9439 160.911C49.8477 167.259 50.7505 173.607 51.6543 179.955C57.2076 185.574 63.0034 190.968 69.0366 196.107C65.4494 178.64 60.5095 161.457 54.3217 144.733C50.8163 142.127 47.3119 139.521 43.8066 136.915C46.455 137.277 49.1025 137.64 51.75 138.002C48.4033 129.488 44.7323 121.101 40.7431 112.866C35.1269 109.031 29.5107 105.197 23.8945 101.361C27.739 101.689 31.5846 102.018 35.4301 102.346C22.1857 77.1528 5.95157 53.5275 -12.9241 32.2072L-20.8246 43.0819C-11.8148 91.9415 11.7533 137.055 45.3947 173.408C46.5777 169.241 47.7608 165.076 48.9439 160.911Z" fill="#6246EA"/>
<path d="M-2.03589 65.2305C12.7438 92.2112 27.5235 119.193 42.3032 146.174" stroke="#2B2C34" stroke-width="1.33333" stroke-miterlimit="10" stroke-linecap="round" stroke-linejoin="round"/>
<path d="M110.887 135.862C112.167 141.416 113.448 146.971 114.728 152.525C127.929 158.798 141.601 164.083 155.631 168.241C147.111 151.074 137.266 134.578 126.279 118.862C119.018 116.957 111.758 115.053 104.497 113.148C109.934 112.511 115.37 111.872 120.806 111.234C111.401 98.4399 101.225 86.2021 90.3618 74.5926C82.942 74.2521 75.5222 73.9106 68.1034 73.5701C73.2947 71.5827 78.4859 69.5963 83.6782 67.609C53.7956 37.1494 19.1258 11.3137 -18.6235 -8.47425L-23.6342 15.5135C3.63784 72.3912 50.3471 119.555 106.436 148.439C107.92 144.247 109.403 140.054 110.887 135.862Z" fill="#E45858"/>
<path d="M-5.01947 17.0818C30.4993 52.0667 66.018 87.0516 101.537 122.037" stroke="#2B2C34" stroke-width="1.33333" stroke-miterlimit="10" stroke-linecap="round" stroke-linejoin="round"/>
<path d="M103.804 63.7685C105.936 69.0913 108.066 74.4132 110.198 79.7361C121.38 84.0025 132.822 87.5829 144.446 90.4256C144.184 86.5445 143.92 82.6643 143.657 78.7842C145.519 83.0407 147.382 87.2972 149.243 91.5537C158.294 93.6008 167.445 95.2128 176.661 96.3488C169.171 81.6816 159.041 68.486 147.367 56.6275C141.393 57.1722 135.418 57.7158 129.444 58.2604C133.487 55.828 137.53 53.3946 141.574 50.9622C129.77 39.8724 116.667 30.0332 103.196 21.3858C73.6071 2.38836 40.9155 -11.1896 8.35249 -24.4848L-8.1759 -4.05961C21.4313 31.2499 59.8589 58.9803 102.444 76.6415C102.897 72.3512 103.351 68.0598 103.804 63.7685Z" fill="#FFD94B"/>
<path d="M16.1968 -2.85642C53.1639 18.199 90.1321 39.2555 127.099 60.3109" stroke="#2B2C34" stroke-width="1.33333" stroke-miterlimit="10" stroke-linecap="round" stroke-linejoin="round"/>
<path d="M137.194 -0.84509C139.979 -2.94795 142.764 -5.0518 145.549 -7.15466C114.946 -27.551 78.1686 -38.596 41.0987 -37.3663L48.8606 -6.59808C70.693 7.13621 94.6222 17.5041 119.541 24.2C118.488 19.373 117.434 14.546 116.381 9.71898C119.389 15.0468 122.398 20.3756 125.407 25.7035C132.41 27.413 139.484 28.8349 146.604 29.959C145.763 25.9544 144.921 21.9488 144.079 17.9442C148.07 22.3889 152.06 26.8326 156.051 31.2772C166.791 32.5716 177.611 33.1949 188.432 33.1212C177.476 18.6014 164.263 5.97625 149.506 -4.43548C145.402 -3.23868 141.298 -2.04189 137.194 -0.84509Z" fill="#FF7AD7"/>
<path d="M59.7939 -25.9785C93.2666 -11.1102 126.739 3.7582 160.211 18.6266" stroke="#2B2C34" stroke-width="1.33333" stroke-miterlimit="10" stroke-linecap="round" stroke-linejoin="round"/>
<path d="M19.755 240.178C21.8119 240.096 23.8698 240.013 25.9278 239.93C17.278 211.49 2.69287 184.842 -16.7364 162.312L-35.217 164.616C-24.8754 193.423 -9.10813 220.263 10.9227 243.425C11.7676 240.899 12.6115 238.374 13.4564 235.849C14.2814 240.248 15.1074 244.647 15.9323 249.046C21.0119 254.573 26.3398 259.873 31.9041 264.915C30.5843 257.385 28.8436 249.933 26.7149 242.592C24.3946 241.787 22.0753 240.983 19.755 240.178Z" fill="#FFB13C"/>
<path d="M-7.15912 194.322C0.543954 207.89 8.24802 221.457 15.9511 235.025" stroke="#2B2C34" stroke-width="1.33333" stroke-miterlimit="10" stroke-linecap="round" stroke-linejoin="round"/>
<path d="M18.3737 195.11C18.4714 197.515 18.5692 199.92 18.667 202.325C22.7948 207.459 27.2279 212.361 31.9832 216.982C31.1503 207.99 29.1342 199.132 26.0748 190.643C23.7285 189.183 21.3823 187.722 19.036 186.263C20.8636 186.375 22.6901 186.488 24.5176 186.599C16.4324 166.654 2.54656 149.017 -15.2776 136.886C-8.38858 159.088 1.83032 180.273 15.81 198.67C16.6639 197.483 17.5188 196.296 18.3737 195.11Z" fill="#FFD94B"/>
<path d="M-1.33661 153.926C4.4801 163.124 10.2968 172.322 16.1135 181.52" stroke="#2B2C34" stroke-width="1.33333" stroke-miterlimit="10" stroke-linecap="round" stroke-linejoin="round"/>
<path d="M322.026 18.9288C323.62 17.6285 325.215 16.3272 326.809 15.0258C302.764 -2.50696 275.056 -15.0435 245.957 -21.3849L232.58 -8.45112C258.198 8.3578 286.966 20.3407 316.925 26.8245C316.079 24.2995 315.232 21.7745 314.386 19.2504C317.695 22.2693 321.005 25.2892 324.315 28.3081C331.704 29.6751 339.153 30.7126 346.636 31.4016C341.046 26.1783 335.165 21.2677 329.041 16.6796C326.703 17.4294 324.365 18.1791 322.026 18.9288Z" fill="#FFB13C"/>
<path d="M272.913 -1.6896C284.668 4.20677 296.423 10.1041 308.179 16.0005" stroke="#2B2C34" stroke-width="1.33333" stroke-miterlimit="10" stroke-linecap="round" stroke-linejoin="round"/>
</g>
<g clip-path="url(#clip2_103_218)">
<path d="M1440.16 374.843C1401.38 381.355 1366.13 406.376 1347.19 440.838C1312.96 439.888 1278.13 460.139 1262.48 490.598C1250.39 478.682 1231.3 474.767 1214.69 478.275C1198.08 481.782 1183.57 494.029 1177.32 509.819C1166.44 507.36 1154.63 509.014 1144.42 513.518C1134.21 518.023 1125.51 525.876 1119.99 535.573C1118.24 529.666 1112.79 524.435 1106.89 522.645C1101 520.855 1094.24 522.22 1089.5 526.159C1084.77 530.097 1082.19 536.489 1082.87 542.612C1082.87 542.612 1440.47 549.679 1440.16 547.737C1439.86 545.794 1440.16 374.843 1440.16 374.843Z" fill="#A08CFF"/>
<path d="M1410.14 496.065C1407.4 477.715 1397.17 460.751 1381.66 450.559C1350.54 464.13 1320.85 481.482 1294.54 502.949C1296.92 518.011 1301.55 532.715 1308.23 546.425L1399.75 549.763C1408.61 533.462 1412.88 514.414 1410.14 496.065Z" fill="#FF9A7D"/>
<path d="M1336.47 504.922C1332.58 517.976 1328.69 531.03 1324.8 544.084" stroke="#2B2C34" stroke-width="1.33333" stroke-miterlimit="10" stroke-linecap="round" stroke-linejoin="round"/>
<path d="M1290.99 458.139C1281.84 460.846 1273.01 464.555 1264.64 469.111C1266.23 470.319 1267.88 471.557 1269.34 472.701C1266.52 472.212 1263.69 471.724 1260.87 471.236C1248.9 478.242 1237.95 487.022 1228.49 497.178C1229.95 499.223 1231.42 501.268 1232.88 503.313C1230.43 502.352 1227.99 501.392 1225.55 500.431C1223.39 502.9 1221.31 505.443 1219.32 508.056C1221.35 509.576 1223.38 511.096 1225.41 512.616C1222.73 511.973 1220.05 511.329 1217.37 510.685C1211.54 518.746 1206.56 527.421 1202.62 536.57C1209.37 534.423 1215.97 531.871 1222.4 528.95C1222.83 526.509 1223.26 524.067 1223.69 521.625C1224.17 523.642 1224.65 525.658 1225.14 527.673C1252.86 514.515 1277.17 494.387 1295.29 469.498L1290.99 458.139Z" fill="#FF7AD7"/>
<path d="M1224.29 517.202C1244.05 501.555 1263.8 485.908 1283.56 470.262" stroke="#2B2C34" stroke-width="1.33333" stroke-miterlimit="10" stroke-linecap="round" stroke-linejoin="round"/>
<path d="M1291.06 522.544C1291.97 524.024 1292.88 525.503 1293.79 526.982C1304.54 515.464 1313.23 502.029 1319.11 487.389L1299.59 482.897C1278.99 501.43 1264.46 526.605 1258.71 553.714C1268.22 548.766 1277.08 542.617 1285.07 535.5C1285.07 531.931 1285.06 528.362 1285.06 524.793C1286.19 527.324 1287.32 529.855 1288.45 532.386C1289.52 531.366 1290.57 530.326 1291.6 529.27C1291.42 527.028 1291.24 524.786 1291.06 522.544Z" fill="#496AFE"/>
<path d="M1292.83 504.939C1286.73 515.958 1279.17 526.168 1270.41 535.216" stroke="#2B2C34" stroke-width="1.33333" stroke-miterlimit="10" stroke-linecap="round" stroke-linejoin="round"/>
<path d="M1294.31 468.045C1269.95 484.339 1249.09 505.804 1233.38 530.536C1235.91 531.45 1238.45 532.364 1240.98 533.278C1237.71 533.549 1234.44 533.82 1231.18 534.091C1227.79 539.658 1224.66 545.378 1221.81 551.238C1234.36 548.063 1246.35 542.489 1257.04 535.089C1257.17 532.262 1257.29 529.435 1257.42 526.607C1258.32 528.701 1259.21 530.793 1260.11 532.886C1264.38 529.715 1268.43 526.255 1272.19 522.524C1286.03 508.789 1296.09 491.292 1301.02 472.426L1294.31 468.045Z" fill="#29D3F3"/>
<path d="M1289.47 482.771C1273.79 499.239 1258.12 515.707 1242.44 532.175" stroke="#2B2C34" stroke-width="1.33333" stroke-miterlimit="10" stroke-linecap="round" stroke-linejoin="round"/>
<path d="M1335.76 502.98C1336.13 505.068 1335.33 507.321 1333.73 508.715C1332.14 510.109 1330 510.956 1327.98 510.312C1326.82 513.058 1324.2 515.137 1321.26 515.646C1318.32 516.155 1315.05 515.235 1313.03 513.041C1312.18 516.025 1309.61 518.454 1306.58 519.134C1303.55 519.815 1300.27 518.599 1298.23 516.264C1296.88 517.799 1294.5 518.311 1292.64 517.463C1290.79 516.617 1289.61 514.48 1289.89 512.458C1303.51 504.516 1320.15 500.725 1335.76 502.98Z" fill="white"/>
<path d="M1354.6 443.343L1286.54 468.165C1288.36 483.181 1290.17 498.196 1291.99 513.211C1305.78 506.607 1321.47 503.904 1336.7 505.227C1344.36 481.866 1361.65 461.848 1383.61 450.79C1374.96 445.322 1364.8 442.497 1354.6 443.343Z" fill="#FFD94B"/>
<path d="M1287.31 477.192C1295.83 480.265 1305.04 481.4 1314.05 480.487C1324.94 479.384 1335.79 475.076 1343.19 467.024" stroke="#2B2C34" stroke-width="1.33333" stroke-miterlimit="10" stroke-linecap="round" stroke-linejoin="round"/>
<path d="M1292.14 509.283C1306.03 503.138 1321.64 500.93 1336.69 502.976" stroke="#2B2C34" stroke-width="1.33333" stroke-miterlimit="10" stroke-linecap="round" stroke-linejoin="round"/>
<path d="M1352.78 434.697L1285.2 455.714C1285.75 458.709 1287.11 466.827 1287.66 469.822C1300.45 473.726 1314.41 473.69 1327.03 469.242C1339.65 464.795 1350.77 456.225 1358.29 445.162L1352.78 434.697Z" fill="#FF9A7D"/>
<path d="M1310.36 464.116C1311.38 463.898 1312.4 463.679 1313.42 463.461" stroke="#2B2C34" stroke-width="1.33333" stroke-miterlimit="10" stroke-linecap="round" stroke-linejoin="round"/>
<path d="M1356.15 304.485C1357.31 303.864 1358.2 303.237 1359.36 302.616C1358.93 301.473 1357.23 300.783 1356.05 301.12C1354.43 301.589 1352.6 301.645 1350.93 301.945C1351.61 300.924 1352.07 299.95 1352.75 298.928C1352.24 298.581 1351.35 298.413 1350.76 298.584C1350.17 298.757 1349.64 299.104 1349.14 299.461C1347.79 300.418 1346.52 301.487 1345.35 302.653C1342.42 302.95 1339.36 303.241 1336.44 303.539C1332.24 300.557 1327.76 297.684 1322.74 296.521C1317.73 295.357 1312.1 295.938 1308.01 299.068C1289 309.775 1270.71 320.997 1252.96 333.101C1245.87 337.937 1241.17 346.319 1240.66 354.884C1240.2 362.577 1243.86 370.058 1249 375.803C1254.14 381.548 1260.67 385.83 1267.12 390.042L1282.22 356.92C1293.65 343.627 1305.08 330.334 1316.51 317.04C1325.64 315.998 1334.55 314.902 1343.68 313.86C1343.68 313.86 1353.91 308.662 1359.08 306.03C1358.61 304.917 1357.33 304.203 1356.15 304.485Z" fill="#FF9A7D"/>
<path d="M1276.32 351.012C1278.95 352.658 1281.58 354.304 1284.21 355.949" stroke="#2B2C34" stroke-width="1.33333" stroke-miterlimit="10" stroke-linecap="round" stroke-linejoin="round"/>
<path d="M1336.4 303.449C1338.2 304.047 1339.99 304.645 1341.78 305.243C1342.87 305.606 1343.63 306.806 1343.41 307.932C1337.54 307.871 1331.23 307.966 1325.36 307.905" stroke="#2B2C34" stroke-width="1.33333" stroke-miterlimit="10" stroke-linecap="round" stroke-linejoin="round"/>
<path d="M1355.99 304.389C1351.5 304.766 1347.01 305.143 1342.52 305.519" stroke="#2B2C34" stroke-width="1.33333" stroke-miterlimit="10" stroke-linecap="round" stroke-linejoin="round"/>
<path d="M1351.27 301.573C1348.77 302.49 1346.27 303.407 1343.76 304.325" stroke="#2B2C34" stroke-width="1.33333" stroke-miterlimit="10" stroke-linecap="round" stroke-linejoin="round"/>
<path d="M1317.08 319.275L1299.77 339.224L1297.33 342.037C1293.42 340.153 1290.7 335.734 1290.79 331.394C1289.36 332.418 1287.31 332.488 1285.81 331.559C1284.32 330.639 1283.47 328.555 1283.74 326.819C1281.1 326.073 1278.82 324.163 1277.62 321.697C1276.42 319.232 1276.57 316.098 1277.61 313.563C1279.19 312.713 1280.76 311.862 1282.34 311.02C1289.74 307.053 1297.18 303.172 1304.57 299.161C1308.73 305.863 1312.9 312.574 1317.08 319.275Z" fill="#FF7AD7"/>
<path d="M1299.77 339.224L1297.33 342.037C1293.42 340.153 1290.7 335.734 1290.79 331.394C1289.36 332.419 1287.31 332.488 1285.81 331.559C1284.32 330.639 1283.47 328.555 1283.74 326.819C1281.1 326.073 1278.82 324.162 1277.62 321.697C1276.42 319.232 1276.57 316.098 1277.61 313.563C1279.18 312.713 1280.76 311.862 1282.34 311.02C1281.49 313.294 1281.49 315.898 1282.42 318.147C1283.5 320.786 1285.8 322.896 1288.52 323.737C1288.1 324.709 1288.3 326.298 1289 327.088C1289.71 327.887 1290.89 328.226 1291.9 327.93C1292.56 332.54 1295.68 336.889 1299.77 339.224Z" fill="#FFD94B"/>
<path d="M1349.81 436.309L1351.45 439.379C1366.21 429.232 1377.61 413.893 1383.09 396.842C1366.99 404.344 1354.48 419.174 1349.81 436.309Z" fill="#FF54B7"/>
<path d="M1372.55 408.173C1364.85 417.482 1357.14 426.791 1349.44 436.101" stroke="#2B2C34" stroke-width="1.33333" stroke-miterlimit="10" stroke-linecap="round" stroke-linejoin="round"/>
<path d="M1350.35 439.368C1369.78 431.429 1388.24 417.37 1399.4 399.594C1379.05 406.521 1361.33 420.891 1350.35 439.368Z" fill="#FF7AD7"/>
<path d="M1381.55 412.713C1372.15 419.786 1362.75 426.861 1353.35 433.936" stroke="#2B2C34" stroke-width="1.33333" stroke-miterlimit="10" stroke-linecap="round" stroke-linejoin="round"/>
<path d="M1350.54 439.268L1354.46 439.295C1373.85 435.548 1392.74 426.962 1408.45 415C1387.22 416.661 1366.61 425.302 1350.54 439.268Z" fill="#FF7AD7"/>
<path d="M1389.75 422.677C1383.2 425.356 1376.64 428.033 1370.09 430.712" stroke="#2B2C34" stroke-width="1.33333" stroke-miterlimit="10" stroke-linecap="round" stroke-linejoin="round"/>
<path d="M1445.39 465.419C1441.92 467.38 1438.46 469.341 1434.99 471.302C1436.77 468.675 1438.54 466.048 1440.32 463.42C1438.36 462.666 1436.39 461.929 1434.42 461.212C1431.15 462.819 1427.87 464.427 1424.6 466.034C1426.27 463.859 1427.94 461.684 1429.62 459.509C1419.27 455.942 1408.7 452.896 1397.85 450.443C1368.96 443.909 1338.52 442.201 1309.34 447.519L1311.09 448.289C1323.35 465.883 1344.24 477.201 1365.94 483.801C1402.57 494.943 1443.45 494.046 1479.45 481.31C1468.34 475.443 1457 470.112 1445.39 465.419Z" fill="#FFD94B"/>
<path d="M1336.16 454.4C1374.4 463.281 1412.64 472.164 1450.88 481.046" stroke="#2B2C34" stroke-width="1.33333" stroke-miterlimit="10" stroke-linecap="round" stroke-linejoin="round"/>
<path d="M1423.81 504.45C1421.36 504.946 1418.92 505.442 1416.47 505.938C1418.03 504.55 1419.77 503.363 1421.63 502.407C1420.09 501.014 1418.47 499.679 1416.79 498.418C1386.19 475.566 1350.08 460.314 1312.41 454.039C1329.1 473.13 1346.56 491.899 1367.51 506.187C1368.54 502.936 1369.56 499.685 1370.59 496.434C1370.89 500.562 1371.19 504.69 1371.49 508.819C1374.56 510.783 1377.72 512.64 1380.94 514.378C1381.47 511.315 1381.99 508.252 1382.53 505.19C1383.17 508.869 1383.82 512.548 1384.47 516.228C1396 522.035 1408.31 526.243 1420.94 528.066C1421.42 525.35 1421.91 522.635 1422.39 519.919C1423.06 522.78 1423.73 525.64 1424.41 528.5C1429.48 529.053 1434.6 529.219 1439.73 528.933C1436.18 519.611 1430.8 511.331 1423.81 504.45Z" fill="#FF7AD7"/>
<path d="M1346.62 471.685C1369.34 484.545 1392.06 497.405 1414.79 510.265" stroke="#2B2C34" stroke-width="1.33333" stroke-miterlimit="10" stroke-linecap="round" stroke-linejoin="round"/>
<path d="M1440.43 436.467C1437.05 438.078 1433.68 439.689 1430.3 441.3C1432.07 439.319 1433.85 437.34 1435.62 435.36C1431.96 434.557 1428.28 433.844 1424.58 433.23C1421.64 434.614 1418.71 435.999 1415.78 437.383C1417.23 435.771 1418.68 434.157 1420.13 432.544C1412.64 431.456 1405.09 430.74 1397.52 430.426C1395.83 432.268 1394.13 434.11 1392.43 435.952C1393.07 434.078 1393.7 432.205 1394.34 430.331C1367.06 429.591 1339.68 433.891 1314.17 443.443L1320.62 446.263C1373 455.552 1426.79 456.835 1479.55 450.051C1467 444.262 1453.88 439.731 1440.43 436.467Z" fill="#496AFE"/>
<path d="M1358.99 439.349C1383.64 441.864 1408.3 444.38 1432.95 446.896" stroke="#2B2C34" stroke-width="1.33333" stroke-miterlimit="10" stroke-linecap="round" stroke-linejoin="round"/>
<path d="M1354.15 436.103L1285.49 457.441C1280.46 446.902 1276.27 435.643 1273.64 424.271C1271.27 422.049 1269.65 419.063 1269.06 415.868C1268.48 412.682 1268.93 409.236 1270.37 406.336C1267.5 406.58 1264.48 406.831 1261.49 407.065C1259.73 407.222 1257.98 407.361 1256.28 407.508C1255.15 405.902 1254.72 403.81 1255.13 401.883C1255.54 399.964 1256.61 397.925 1258.3 396.917C1255.69 395.407 1254.21 392.161 1254.79 389.2C1255.38 386.249 1258.54 383.835 1261.53 383.436C1261.14 382.464 1261.29 381.292 1261.91 380.458C1262.54 379.617 1263.87 378.957 1264.91 379.052C1263.73 376.118 1264.54 372.49 1266.87 370.337C1269.19 368.184 1272.84 367.203 1275.69 368.609C1274.09 365.727 1274.31 361.942 1276.21 359.251C1278.12 356.569 1282.14 354.138 1285.09 355.596C1286.39 356.247 1287.7 356.89 1289 357.541C1299.89 362.949 1310.77 368.357 1321.66 373.757C1322.4 375.84 1324.58 377.551 1326.75 377.915C1328.93 378.271 1331.28 377.368 1332.66 375.64C1336.04 378.523 1339.41 380.823 1342.8 383.697C1350.5 390.233 1351.84 402.516 1349.01 412.213C1349.01 412.213 1352.48 428.177 1354.15 436.103Z" fill="#29D3F3"/>
<path d="M1289 357.541C1286.41 358.391 1284.05 359.972 1282.3 362.081C1279.64 365.293 1278.38 369.434 1279.06 373.557C1276.4 372.116 1272.91 372.368 1270.49 374.182C1268.06 375.997 1266.87 379.139 1267.5 382.099C1266.38 382.195 1265.34 382.889 1264.81 383.879C1264.29 384.86 1264.19 386.049 1264.73 387.03C1262.77 387.916 1261.34 389.86 1261.07 391.996C1260.79 394.131 1261.65 397.065 1263.33 398.411C1261.83 399.704 1260.9 401.614 1260.8 403.576C1260.74 404.774 1260.98 405.981 1261.49 407.066C1259.73 407.222 1257.98 407.36 1256.28 407.509C1255.15 405.903 1254.72 403.81 1255.13 401.883C1255.54 399.964 1256.61 397.924 1258.3 396.918C1255.69 395.407 1254.21 392.16 1254.79 389.2C1255.38 386.248 1258.54 383.835 1261.53 383.436C1261.14 382.464 1261.29 381.292 1261.91 380.458C1262.54 379.616 1263.87 378.956 1264.91 379.052C1263.73 376.118 1264.54 372.49 1266.87 370.336C1269.19 368.183 1272.84 367.202 1275.69 368.609C1274.09 365.727 1274.31 361.942 1276.21 359.251C1278.12 356.569 1282.14 354.138 1285.09 355.597C1286.39 356.247 1287.7 356.89 1289 357.541Z" fill="white"/>
<path d="M1274.96 392.497C1274.3 394.747 1274.23 397.044 1274.58 399.359C1273.06 401.784 1271.54 404.209 1270.02 406.634" stroke="#2B2C34" stroke-width="1.33333" stroke-miterlimit="10" stroke-linecap="round" stroke-linejoin="round"/>
<path d="M1306.8 368.519C1311.59 370.534 1316.38 372.548 1321.16 374.562C1323.72 378.126 1328.91 379.387 1332.86 377.479C1334.91 379.444 1336.97 380.595 1339.02 382.56C1331.89 387.551 1324.05 392.437 1317.78 398.481C1314.53 401.618 1311.31 404.955 1307.22 406.867C1303.12 408.779 1297.84 408.943 1294.44 405.974C1292.24 404.059 1291.13 401.11 1290.97 398.201C1290.8 395.292 1291.49 392.399 1292.4 389.629C1295.02 381.62 1300.86 374.502 1306.8 368.519Z" fill="#FF9A7D"/>
<path d="M1299.9 403.436C1298.71 405.779 1299.26 404.699 1298.07 407.042" stroke="#2B2C34" stroke-width="1.33333" stroke-miterlimit="10" stroke-linecap="round" stroke-linejoin="round"/>
<path d="M1332.25 376.163L1319.9 372.582C1319.04 372.616 1318.19 372.65 1317.34 372.685C1316.54 375.414 1317.81 378.715 1319.99 380.54C1322.18 382.365 1325.19 383.006 1328.02 382.652C1330.84 382.297 1333.48 381.027 1335.82 379.402C1334.64 378.33 1333.42 377.234 1332.25 376.163Z" fill="#FFD94B"/>
<path d="M1338.45 364.931C1341.9 367.863 1345.35 370.795 1348.8 373.727C1352.28 376.681 1355.81 379.668 1359.91 381.659C1365.77 384.503 1372.68 385.133 1378.96 383.398" stroke="#2B2C34" stroke-width="1.33333" stroke-miterlimit="10" stroke-linecap="round" stroke-linejoin="round"/>
<path d="M1386.62 344.183C1382.64 345.298 1378.34 344.495 1374.54 342.891C1370.74 341.287 1367.32 338.924 1363.8 336.768C1360.28 334.612 1356.56 332.622 1352.5 331.894C1348.44 331.165 1343.94 331.86 1340.83 334.572" stroke="#2B2C34" stroke-width="1.33333" stroke-miterlimit="10" stroke-linecap="round" stroke-linejoin="round"/>
<path d="M1402.97 360.085C1401.74 358.989 1399.7 358.314 1398.11 358.774C1401.8 357.843 1404.5 353.996 1404.13 350.215C1403.76 346.434 1400.36 343.186 1396.57 342.987C1393.44 342.825 1390.55 344.463 1387.55 345.352C1380.3 347.505 1372.28 344.374 1366.6 339.377C1362.7 335.947 1358 333.342 1352.9 332.344C1347.81 331.346 1342.31 332.037 1337.85 334.693C1333.39 337.349 1330.09 342.051 1329.56 347.217L1335.84 362.852C1341.14 367.165 1346.41 371.576 1351.84 375.716C1357.97 380.383 1365.89 382.631 1373.56 381.878C1381.22 381.125 1388.12 376.917 1393.22 371.147C1396.23 371.497 1399.37 370.619 1401.76 368.756C1403.12 367.699 1404.28 366.257 1404.56 364.557C1404.83 362.928 1404.21 361.181 1402.97 360.085Z" fill="#2B2C34"/>
<path d="M1330.81 349.086L1333.79 352.544C1341.23 351.218 1348.18 346.703 1352.47 340.481C1344.48 340.197 1336.43 343.396 1330.81 349.086Z" fill="#FF7AD7"/>
<path d="M1335.47 349.211C1338.6 347.332 1341.72 345.452 1344.85 343.573" stroke="#2B2C34" stroke-width="1.33333" stroke-miterlimit="10" stroke-linecap="round" stroke-linejoin="round"/>
<path d="M1328.82 348.099L1332.01 349.021C1340.59 342.945 1346.26 333.287 1347.67 322.871C1338.61 328.624 1331.77 337.78 1328.82 348.099Z" fill="#FFD94B"/>
<path d="M1339.5 333.978C1336.96 338.614 1334.42 343.251 1331.88 347.888" stroke="#2B2C34" stroke-width="1.33333" stroke-miterlimit="10" stroke-linecap="round" stroke-linejoin="round"/>
<path d="M1329.05 349.141C1326.39 343.993 1325.47 337.962 1326.48 332.253C1327.49 326.545 1330.41 321.193 1334.68 317.266C1336.71 328.441 1334.58 339.217 1329.05 349.141Z" fill="#29D3F3"/>
<path d="M1331.26 328.162C1330.55 333.945 1329.84 339.728 1329.12 345.511" stroke="#2B2C34" stroke-width="1.33333" stroke-miterlimit="10" stroke-linecap="round" stroke-linejoin="round"/>
<path d="M1313.57 350.356C1314.66 350.175 1315.74 349.994 1316.83 349.812" stroke="#2B2C34" stroke-width="1.33333" stroke-miterlimit="10" stroke-linecap="round" stroke-linejoin="round"/>
<path d="M1337.63 351.928C1335.68 348.297 1331.87 345.737 1327.77 345.317C1323.69 344.897 1319.46 346.615 1316.82 349.751C1315.82 350.322 1314.89 351.014 1314.06 351.841C1315.31 353.406 1316.56 354.971 1317.81 356.536L1333.22 360.816L1337.65 363.792C1339.58 360.153 1339.57 355.558 1337.63 351.928Z" fill="#2B2C34"/>
<path d="M1333.03 377.947C1333.69 374.669 1334.56 371.625 1335.23 368.347C1337.13 368.821 1339.29 368.039 1340.44 366.454C1341.6 364.868 1341.69 362.576 1340.65 360.907C1339.62 359.239 1337.53 358.296 1335.59 358.626C1335.04 357.192 1334.08 355.979 1333.53 354.545C1332.78 355.114 1331.47 355.144 1330.62 354.748C1329.76 354.351 1329.16 353.46 1329.11 352.519C1328.34 353.417 1326.53 353.485 1325.62 352.718C1324.66 353.791 1322.95 354.369 1321.51 354.332C1320.07 354.296 1318.65 353.601 1317.74 352.481C1316.44 355.422 1315.06 358.494 1314.93 361.707C1314.85 363.594 1314.66 365.519 1315.54 367.188C1316.43 368.857 1317.94 370.182 1319.71 370.836C1319.46 372.011 1319.02 373.246 1318.76 374.42C1320.13 376.679 1322.57 378.459 1325.11 379.15C1327.66 379.84 1330.71 379.207 1333.03 377.947Z" fill="#FF9A7D"/>
<path d="M1327.08 362.184L1322.57 362.317C1322.46 363.591 1323.62 364.829 1324.9 364.79C1326.18 364.753 1327.27 363.45 1327.08 362.184Z" fill="white"/>
<path d="M1322.61 357.898C1322.18 359.056 1321.76 360.213 1321.34 361.371C1321.88 361.295 1322.42 361.22 1322.96 361.144" stroke="#2B2C34" stroke-width="1.33333" stroke-miterlimit="10" stroke-linecap="round" stroke-linejoin="round"/>
<path d="M1326.43 358.9C1326.83 358.404 1327.5 358.136 1328.13 358.219C1328.76 358.301 1329.33 358.731 1329.59 359.312" stroke="#2B2C34" stroke-width="1.33333" stroke-miterlimit="10" stroke-linecap="round" stroke-linejoin="round"/>
<path d="M1317.15 357.072C1317.65 356.697 1318.38 356.643 1318.93 356.937C1319.49 357.231 1319.85 357.858 1319.83 358.488" stroke="#2B2C34" stroke-width="1.33333" stroke-miterlimit="10" stroke-linecap="round" stroke-linejoin="round"/>
<path d="M1326.84 354.301C1327.66 354.393 1328.48 354.484 1329.29 354.576" stroke="#2B2C34" stroke-width="1.33333" stroke-miterlimit="10" stroke-linecap="round" stroke-linejoin="round"/>
<path d="M1325.32 352.674C1324.41 354.583 1322.32 355.863 1320.2 355.802" stroke="#2B2C34" stroke-width="1.33333" stroke-miterlimit="10" stroke-linecap="round" stroke-linejoin="round"/>
<path d="M1336.55 362.564C1337.62 362.492 1338.69 362.419 1339.76 362.347" stroke="#2B2C34" stroke-width="1.33333" stroke-miterlimit="10" stroke-linecap="round" stroke-linejoin="round"/>
<path d="M1319.38 371.064C1322.67 372.724 1326.73 372.747 1330.04 371.124" stroke="#2B2C34" stroke-width="1.33333" stroke-miterlimit="10" stroke-linecap="round" stroke-linejoin="round"/>
<path d="M1324.16 379.254C1324.16 377.608 1322.82 376.275 1321.18 376.275C1319.53 376.275 1318.2 377.608 1318.2 379.254C1318.2 380.899 1319.53 382.233 1321.18 382.233C1322.82 382.233 1324.16 380.899 1324.16 379.254Z" fill="#FF54B7"/>
<path d="M1339.38 425.297C1331.31 417.405 1321.32 411.304 1310.56 407.89C1306.32 413.412 1302.07 418.933 1297.82 424.456C1283.31 421.898 1268.46 419.721 1253.95 417.164C1245.65 417.393 1237.14 418.249 1229.02 419.954C1221.5 419.204 1213.94 418.639 1206.42 417.889C1206.01 418.475 1206.24 419.639 1206.73 420.16C1207.22 420.681 1207.9 420.955 1208.57 421.212C1209.94 421.743 1211.31 422.273 1212.68 422.804C1208.63 423.529 1204.47 424.262 1200.43 424.988C1200.16 425.782 1200.7 426.791 1201.44 427.188C1202.18 427.585 1203.05 427.616 1203.89 427.638C1206.71 427.713 1209.54 427.787 1212.36 427.862C1209.48 428.632 1206.68 429.288 1203.8 430.059C1203.46 430.929 1203.99 432.22 1204.83 432.639C1205.66 433.057 1206.64 433.039 1207.57 433.012C1210.72 432.92 1213.88 432.828 1217.03 432.735C1215.85 433.123 1214.67 433.51 1213.49 433.898C1213.36 434.426 1213.6 435.041 1214.08 435.304C1214.56 435.566 1215.12 435.609 1215.66 435.646C1217.87 435.796 1220.09 435.946 1222.3 436.096C1228.32 436.504 1234.33 436.912 1240.35 437.32C1240.35 437.32 1262.36 446.364 1273.39 450.726C1284.2 455.002 1295.91 459.349 1307.18 456.483C1314.49 454.621 1320.8 449.831 1325.73 444.119C1330.66 438.405 1335.7 431.889 1339.38 425.297Z" fill="#FF9A7D"/>
<path d="M1288.83 456.138C1296.16 458.583 1304.39 458.227 1311.49 455.159" stroke="#2B2C34" stroke-width="1.33333" stroke-miterlimit="10" stroke-linecap="round" stroke-linejoin="round"/>
<path d="M1297.48 424.669C1298.19 425.333 1298.91 425.997 1299.62 426.661" stroke="#2B2C34" stroke-width="1.33333" stroke-miterlimit="10" stroke-linecap="round" stroke-linejoin="round"/>
<path d="M1212.62 422.711C1216.65 422.151 1220.69 421.592 1224.72 421.033" stroke="#2B2C34" stroke-width="1.33333" stroke-miterlimit="10" stroke-linecap="round" stroke-linejoin="round"/>
<path d="M1212.29 427.574C1217.04 426.914 1221.8 426.253 1226.55 425.592" stroke="#2B2C34" stroke-width="1.33333" stroke-miterlimit="10" stroke-linecap="round" stroke-linejoin="round"/>
<path d="M1215.7 432.594C1219.88 431.937 1224.07 431.28 1228.26 430.623" stroke="#2B2C34" stroke-width="1.33333" stroke-miterlimit="10" stroke-linecap="round" stroke-linejoin="round"/>
<path d="M1277.94 424.497C1277.37 426.641 1275.99 428.568 1274.13 429.783C1275.11 430.704 1275.38 432.023 1275.16 433.351C1274.94 434.671 1274.02 435.86 1272.79 436.407C1273.79 437.953 1274.14 440.383 1273.61 442.145C1273.09 443.916 1271.76 445.427 1270.09 446.173C1270.92 447.857 1270.88 450.027 1269.89 451.625L1265.7 449.897L1241.69 440.027C1244.01 432.014 1246.35 424.01 1248.67 415.998C1257.04 416.719 1265.37 417.127 1273.73 417.769C1274.86 417.856 1275.98 417.942 1277.11 418.038C1278.13 420.017 1278.5 422.344 1277.94 424.497Z" fill="#FF7AD7"/>
<path d="M1277.94 424.497C1277.37 426.641 1275.99 428.568 1274.13 429.783C1275.11 430.704 1275.38 432.023 1275.16 433.351C1274.94 434.671 1274.02 435.86 1272.79 436.407C1273.79 437.953 1274.14 440.383 1273.61 442.145C1273.09 443.916 1271.76 445.427 1270.09 446.173C1270.92 447.857 1270.88 450.027 1269.89 451.625L1265.7 449.897C1266.08 447.709 1265.54 445.34 1264.12 443.595C1265.97 442.709 1267.46 441.138 1268.24 439.254C1269.03 437.37 1269.21 435.374 1268.56 433.447C1270.37 432.205 1271.18 429.653 1270.07 427.761C1271.84 426.675 1273.2 424.931 1273.8 422.951C1274.31 421.267 1274.28 419.436 1273.73 417.769C1274.86 417.856 1275.98 417.942 1277.11 418.038C1278.13 420.017 1278.5 422.344 1277.94 424.497Z" fill="#FFD94B"/>
<path d="M1349.67 411.51C1348.66 417.447 1347.13 423.36 1346.94 429.358C1346.92 429.94 1346.91 430.521 1346.92 431.103C1344.97 432.544 1343.24 433.438 1340.97 432.562C1338.72 431.676 1336.42 429.523 1335.95 427.144C1334.78 427.873 1333.19 427.848 1332.05 427.075C1330.91 426.302 1330.27 425.286 1330.52 423.933C1327.58 425.026 1324.1 424.54 1321.55 422.691C1319.02 420.833 1317.32 417.76 1317.46 414.627C1314.49 415.243 1311.45 415.859 1308.45 415.477C1305.44 415.104 1302.86 413.75 1301.49 411.041C1303.07 409.149 1304.66 407.274 1306.28 405.425C1311.12 399.895 1316.16 394.556 1321.37 389.4C1324.74 386.075 1328.5 382.681 1333.17 381.978C1339.71 380.997 1346.04 385.902 1348.62 391.986C1351.2 398.072 1350.77 404.99 1349.67 411.51Z" fill="#29D3F3"/>
<path d="M1346.94 429.358C1346.92 429.94 1346.91 430.521 1346.92 431.103C1344.97 432.544 1343.24 433.438 1340.97 432.561C1338.72 431.676 1336.42 429.523 1335.95 427.145C1334.78 427.874 1333.19 427.848 1332.05 427.075C1330.91 426.302 1330.27 425.287 1330.52 423.933C1327.58 425.027 1324.1 424.54 1321.55 422.691C1319.02 420.834 1317.32 417.76 1317.46 414.627C1314.49 415.243 1311.45 415.86 1308.45 415.477C1305.43 415.104 1302.86 413.749 1301.49 411.042C1303.07 409.149 1304.66 407.274 1306.28 405.425C1310.06 408.784 1315.77 409.896 1320.52 408.099C1320.01 411.215 1321.38 414.401 1323.61 416.632C1325.84 418.863 1329.18 419.931 1332.29 419.41C1332.45 420.686 1333.17 421.606 1334.26 422.275C1335.37 422.934 1336.76 423.065 1337.97 422.613C1338.02 425.261 1339.82 427.821 1342.22 428.942C1343.68 429.618 1345.37 429.74 1346.94 429.358Z" fill="white"/>
<path d="M1414.58 255.349C1414.35 255.393 1414.13 255.443 1413.9 255.498C1413.58 256.631 1413.26 257.765 1412.93 258.899C1412.62 257.974 1412.3 257.049 1411.98 256.124C1410.93 256.555 1409.93 257.116 1409.03 257.814C1408.86 257.94 1408.71 258.076 1408.55 258.21C1408.77 259.428 1408.99 260.646 1409.2 261.865C1408.61 261.011 1408.02 260.157 1407.42 259.304C1404.5 262.507 1403.14 267.188 1404.03 271.498C1408.37 271.613 1412.81 269.948 1416.29 267.322C1415.33 266.767 1414.37 266.21 1413.41 265.654C1414.97 265.693 1416.54 265.731 1418.1 265.769C1418.63 265.259 1419.12 264.721 1419.58 264.158C1422.71 260.307 1419.41 254.427 1414.58 255.349Z" fill="#29D3F3"/>
<path d="M1402.56 275.453C1404.43 269.549 1408.57 264.433 1413.9 261.43" stroke="#2B2C34" stroke-width="1.33333" stroke-miterlimit="10" stroke-linecap="round" stroke-linejoin="round"/>
<path d="M1407.32 301.898C1407.25 302.118 1407.19 302.34 1407.13 302.563C1407.99 303.375 1408.84 304.187 1409.7 305C1408.73 304.852 1407.76 304.705 1406.8 304.557C1406.69 305.689 1406.73 306.833 1406.93 307.958C1406.96 308.161 1407.01 308.36 1407.06 308.561C1408.24 308.934 1409.42 309.307 1410.6 309.68C1409.57 309.809 1408.53 309.94 1407.5 310.07C1408.98 314.148 1412.5 317.521 1416.74 318.725C1418.85 314.937 1419.43 310.231 1418.72 305.933C1417.78 306.526 1416.84 307.119 1415.9 307.712L1418.18 303.604C1417.97 302.901 1417.72 302.216 1417.44 301.549C1415.48 296.988 1408.74 297.184 1407.32 301.898Z" fill="#496AFE"/>
<path d="M1419.56 321.866C1415.19 317.469 1412.58 311.433 1412.39 305.319" stroke="#2B2C34" stroke-width="1.33333" stroke-miterlimit="10" stroke-linecap="round" stroke-linejoin="round"/>
<path d="M1037.17 520.96C1037.24 521.178 1037.32 521.394 1037.4 521.608C1038.57 521.782 1039.74 521.956 1040.9 522.13C1040.03 522.565 1039.15 523 1038.28 523.434C1038.84 524.421 1039.52 525.338 1040.33 526.145C1040.48 526.29 1040.63 526.425 1040.79 526.563C1041.97 526.191 1043.15 525.818 1044.33 525.445C1043.56 526.145 1042.79 526.844 1042.02 527.542C1045.57 530.029 1050.39 530.77 1054.55 529.324C1054.1 525.01 1051.87 520.824 1048.82 517.715C1048.39 518.739 1047.97 519.763 1047.54 520.787C1047.38 519.23 1047.21 517.673 1047.05 516.115C1046.47 515.66 1045.88 515.241 1045.26 514.86C1041.03 512.252 1035.63 516.284 1037.17 520.96Z" fill="#FFB13C"/>
<path d="M1058.66 530.276C1052.56 529.182 1046.96 525.743 1043.29 520.847" stroke="#2B2C34" stroke-width="1.33333" stroke-miterlimit="10" stroke-linecap="round" stroke-linejoin="round"/>
<path d="M1418.51 358.984C1418.51 358.374 1418.02 357.879 1417.41 357.879C1416.8 357.879 1416.3 358.374 1416.3 358.984C1416.3 359.595 1416.8 360.09 1417.41 360.09C1418.02 360.09 1418.51 359.595 1418.51 358.984Z" stroke="#2B2C34" stroke-width="1.33333" stroke-miterlimit="10" stroke-linecap="round" stroke-linejoin="round"/>
<path d="M1232.23 458.318C1232.23 457.708 1231.73 457.213 1231.12 457.213C1230.51 457.213 1230.02 457.708 1230.02 458.318C1230.02 458.929 1230.51 459.424 1231.12 459.424C1231.73 459.424 1232.23 458.929 1232.23 458.318Z" fill="#496AFE"/>
<path d="M1195.15 447.805C1195.15 447.194 1194.65 446.699 1194.04 446.699C1193.43 446.699 1192.94 447.194 1192.94 447.805C1192.94 448.415 1193.43 448.91 1194.04 448.91C1194.65 448.91 1195.15 448.415 1195.15 447.805Z" fill="#496AFE"/>
<path d="M1071.25 525.355C1071.25 524.745 1070.76 524.25 1070.15 524.25C1069.53 524.25 1069.04 524.745 1069.04 525.355C1069.04 525.966 1069.53 526.461 1070.15 526.461C1070.76 526.461 1071.25 525.966 1071.25 525.355Z" fill="#2B2C34"/>
<path d="M1028.21 530.276C1028.21 529.666 1027.72 529.17 1027.11 529.17C1026.5 529.17 1026 529.666 1026 530.276C1026 530.886 1026.5 531.382 1027.11 531.382C1027.72 531.382 1028.21 530.886 1028.21 530.276Z" fill="#496AFE"/>
<path d="M1427.44 236.357C1427.44 235.746 1426.94 235.251 1426.33 235.251C1425.72 235.251 1425.23 235.746 1425.23 236.357C1425.23 236.967 1425.72 237.462 1426.33 237.462C1426.94 237.462 1427.44 236.967 1427.44 236.357Z" fill="#29D3F3"/>
<path d="M1408.37 373.099C1408.37 372.489 1407.87 371.994 1407.26 371.994C1406.65 371.994 1406.16 372.489 1406.16 373.099C1406.16 373.71 1406.65 374.205 1407.26 374.205C1407.87 374.205 1408.37 373.71 1408.37 373.099Z" fill="#496AFE"/>
<path d="M1387.59 318.11L1381.82 323.142L1389.06 325.626L1387.59 318.11Z" fill="#496AFE"/>
<path d="M1203.98 463.032L1196.55 461.173L1198.65 468.537L1203.98 463.032Z" fill="#29D3F3"/>
<path d="M1084.77 518.611L1081.25 511.809L1077.12 518.261L1084.77 518.611Z" stroke="#2B2C34" stroke-width="1.33333" stroke-miterlimit="10" stroke-linecap="round" stroke-linejoin="round"/>
<path d="M1429.58 216.942L1422.51 214L1423.5 221.595L1429.58 216.942Z" stroke="#2B2C34" stroke-width="1.33333" stroke-miterlimit="10" stroke-linecap="round" stroke-linejoin="round"/>
<path d="M1159.8 480.406L1156.96 482.522L1170.89 502.739C1171.76 503.993 1173.49 504.278 1174.71 503.368C1175.93 502.459 1176.15 500.717 1175.2 499.531L1159.8 480.406Z" fill="#2B2C34"/>
<path d="M1160.8 458.78C1162.15 460.587 1163.19 462.513 1163.92 464.465C1164.26 465.384 1164.52 466.303 1164.73 467.219C1165.26 469.606 1165.35 471.981 1165 474.207C1164.79 475.568 1164.4 476.871 1163.86 478.084C1162.95 480.132 1161.57 481.915 1159.74 483.28C1157.89 484.654 1155.79 485.462 1153.55 485.749C1152.23 485.925 1150.88 485.92 1149.51 485.731C1147.32 485.438 1145.09 484.693 1143 483.529C1142.15 483.064 1141.31 482.526 1140.51 481.918C1138.84 480.668 1137.3 479.12 1135.95 477.313C1134.89 475.889 1133.96 474.452 1133.19 472.995C1133.05 472.741 1132.92 472.487 1132.81 472.236C1132.22 471.052 1131.75 469.868 1131.4 468.687C1130.26 464.845 1130.44 461.049 1132.52 457.598C1133.54 455.906 1135.02 454.302 1137.02 452.812C1139.01 451.331 1140.97 450.386 1142.89 449.903C1146.77 448.927 1150.48 449.83 1153.85 452.018C1154.87 452.667 1155.85 453.434 1156.79 454.296C1157.02 454.5 1157.23 454.696 1157.44 454.913C1158.62 456.061 1159.74 457.356 1160.8 458.78Z" fill="#29D3F3"/>
<path d="M1160.8 458.78C1162.15 460.587 1163.19 462.513 1163.92 464.465C1164.26 465.384 1164.52 466.303 1164.73 467.219C1165.26 469.606 1165.35 471.981 1165 474.207L1159.85 472.145L1160.43 478.592L1154.42 476.191L1155.01 482.634L1149 480.234L1149.51 485.731C1147.32 485.438 1145.09 484.693 1143 483.529C1142.15 483.064 1141.31 482.526 1140.51 481.918C1138.84 480.668 1137.3 479.12 1135.95 477.313C1134.89 475.889 1133.96 474.452 1133.19 472.995C1133.05 472.741 1132.92 472.487 1132.81 472.236C1132.22 471.052 1131.75 469.868 1131.4 468.687L1132.26 469.031L1131.67 462.588L1137.68 464.989L1137.1 458.546L1143.1 460.947L1142.52 454.504L1148.52 456.909L1147.93 450.466L1153.93 452.872L1153.85 452.018C1154.87 452.667 1155.85 453.434 1156.79 454.296C1157.02 454.5 1157.23 454.696 1157.44 454.913C1158.62 456.061 1159.74 457.356 1160.8 458.78Z" fill="#496AFE"/>
<path d="M1160.8 458.779C1161.5 459.714 1162.12 460.684 1162.64 461.674C1163.14 462.588 1163.56 463.525 1163.91 464.466L1140.51 481.917C1139.71 481.312 1138.93 480.64 1138.2 479.904C1137.4 479.118 1136.64 478.249 1135.95 477.313C1135.53 476.759 1135.14 476.204 1134.78 475.648C1134.19 474.771 1133.66 473.883 1133.19 472.995L1157.44 454.912C1158.16 455.613 1158.86 456.372 1159.54 457.188C1159.97 457.693 1160.39 458.225 1160.8 458.779Z" fill="#FFD94B"/>
<path d="M1139.1 453.517C1143.48 450.59 1149.8 450.992 1153.77 454.451" stroke="white" stroke-width="1.33333" stroke-miterlimit="10" stroke-linecap="round" stroke-linejoin="round"/>
<path d="M1137.23 507.828L1135.52 510.927L1156.56 523.583C1157.86 524.367 1159.56 523.912 1160.29 522.579C1161.03 521.246 1160.51 519.569 1159.15 518.884L1137.23 507.828Z" fill="#2B2C34"/>
<path d="M1129.21 487.717C1131.19 488.806 1132.93 490.133 1134.39 491.609C1135.08 492.305 1135.71 493.031 1136.27 493.779C1137.74 495.733 1138.8 497.861 1139.4 500.034C1139.77 501.361 1139.96 502.708 1139.97 504.035C1139.98 506.277 1139.46 508.471 1138.36 510.471C1137.25 512.483 1135.66 514.089 1133.75 515.274C1132.62 515.98 1131.38 516.534 1130.06 516.928C1127.94 517.567 1125.61 517.806 1123.22 517.612C1122.25 517.539 1121.26 517.396 1120.29 517.172C1118.25 516.722 1116.21 515.951 1114.23 514.862C1112.68 514.004 1111.23 513.08 1109.93 512.071C1109.71 511.895 1109.48 511.719 1109.27 511.537C1108.25 510.701 1107.33 509.818 1106.52 508.886C1103.9 505.86 1102.5 502.325 1102.97 498.322C1103.2 496.36 1103.88 494.29 1105.09 492.108C1106.28 489.938 1107.68 488.265 1109.23 487.031C1112.36 484.54 1116.11 483.83 1120.09 484.43C1121.28 484.601 1122.49 484.895 1123.7 485.291C1124 485.383 1124.27 485.475 1124.55 485.586C1126.1 486.144 1127.66 486.858 1129.21 487.717Z" fill="#FFD94B"/>
<path d="M1129.21 487.717C1131.19 488.806 1132.93 490.133 1134.39 491.609C1135.08 492.305 1135.71 493.031 1136.27 493.779C1137.74 495.733 1138.8 497.861 1139.4 500.034L1133.86 500.283L1137.05 505.914L1130.59 506.21L1133.79 511.835L1127.32 512.13L1130.06 516.928C1127.94 517.567 1125.61 517.806 1123.22 517.612C1122.25 517.539 1121.26 517.396 1120.29 517.172C1118.25 516.722 1116.21 515.951 1114.23 514.862C1112.68 514.004 1111.23 513.08 1109.93 512.071C1109.71 511.895 1109.48 511.719 1109.27 511.537C1108.25 510.701 1107.33 509.818 1106.52 508.886L1107.45 508.844L1104.26 503.218L1110.72 502.924L1107.52 497.298L1113.99 497.003L1110.79 491.377L1117.25 491.089L1114.05 485.464L1120.51 485.175L1120.09 484.43C1121.28 484.601 1122.49 484.895 1123.7 485.291C1124 485.383 1124.27 485.475 1124.55 485.586C1126.1 486.144 1127.66 486.858 1129.21 487.717Z" fill="#FF7AD7"/>
<path d="M1129.21 487.717C1130.23 488.28 1131.19 488.908 1132.08 489.592C1132.91 490.221 1133.68 490.9 1134.39 491.611L1120.29 517.172C1119.31 516.952 1118.32 516.661 1117.35 516.294C1116.3 515.907 1115.25 515.428 1114.23 514.864C1113.62 514.53 1113.04 514.186 1112.48 513.83C1111.58 513.274 1110.73 512.686 1109.94 512.07L1124.55 485.584C1125.49 485.926 1126.45 486.327 1127.4 486.791C1128 487.072 1128.61 487.383 1129.21 487.717Z" fill="#FDB044"/>
<path d="M1108.19 491.279C1111.18 487.454 1116.51 485.628 1121.22 486.817" stroke="white" stroke-width="1.33333" stroke-miterlimit="10" stroke-linecap="round" stroke-linejoin="round"/>
</g>
</g>
<defs>
<clipPath id="clip0_103_218">
<rect width="1440" height="532" fill="white"/>
</clipPath>
<clipPath id="clip1_103_218">
<rect width="407" height="345" fill="white"/>
</clipPath>
<clipPath id="clip2_103_218">
<rect width="414" height="330" fill="white" transform="translate(1026 214)"/>
</clipPath>
</defs>
</svg>
